<svg width="32" height="32" viewBox="0 0 32 32" fill="none" xmlns="http://www.w3.org/2000/svg">
<g clip-path="url(#clip0_327_51)">
<path d="M13.1333 11.2266C12.64 11.0266 12.1067 10.9466 11.56 10.9599C11.2133 10.9599 10.9067 10.9599 10.6533 10.9732C10.3867 10.9599 10.2 10.9732 10.1067 10.9866V15.4666C10.2933 15.4799 10.4667 15.4932 10.6267 15.4932H11.3333C11.8533 15.4932 12.3733 15.4132 12.8667 15.2532C13.2933 15.1332 13.6667 14.8799 13.96 14.5466C14.24 14.2132 14.3733 13.7599 14.3733 13.1732C14.3867 12.7599 14.28 12.3466 14.0667 11.9866C13.8443 11.6404 13.5174 11.3741 13.1333 11.2266ZM26.3333 0.399902H5.66667C2.53333 0.399902 0 2.93324 0 6.06657V25.9319C0 29.0652 2.53333 31.5986 5.66667 31.5986H26.3333C29.4667 31.5986 32 29.0652 32 25.9319V6.06657C32 2.93324 29.4667 0.399902 26.3333 0.399902ZM16.4787 15.9332C15.9467 16.6799 15.2 17.2399 14.3333 17.5599C13.4267 17.8932 12.4267 18.0132 11.3333 18.0132C11.0133 18.0132 10.8 18.0132 10.6667 17.9999C10.5333 17.9866 10.3467 17.9866 10.0933 17.9866V22.2652C10.1067 22.3586 10.04 22.4399 9.94667 22.4532H7.36C7.25333 22.4532 7.2 22.3986 7.2 22.2786V8.5599C7.2 8.46657 7.24 8.41324 7.33333 8.41324C7.56 8.41324 7.77333 8.41324 8.08 8.3999C8.4 8.38657 8.73333 8.38657 9.09333 8.37324C9.45333 8.3599 9.84 8.3599 10.2533 8.34657C10.6667 8.33324 11.0667 8.33324 11.4667 8.33324C12.56 8.33324 13.4667 8.46657 14.2133 8.74657C14.88 8.97324 15.4933 9.34657 16 9.8399C16.4267 10.2666 16.76 10.7866 16.9733 11.3599C17.172 11.9199 17.2787 12.4932 17.2787 13.0932C17.28 14.2399 17.0133 15.1866 16.4787 15.9332ZM25.9333 21.1199C25.56 21.6532 25.0387 22.0652 24.44 22.3079C23.7867 22.5866 22.9867 22.7319 22.0253 22.7319C21.4133 22.7319 20.812 22.6799 20.2133 22.5599C19.7467 22.4786 19.28 22.3332 18.8533 22.1332C18.76 22.0812 18.692 21.9879 18.7053 21.8812V19.5612C18.7053 19.5226 18.72 19.4679 18.76 19.4412C18.7987 19.4146 18.84 19.4279 18.88 19.4546C19.4 19.7612 19.9467 19.9759 20.5333 20.1079C21.0387 20.2412 21.572 20.3079 22.1067 20.3079C22.6133 20.3079 22.9733 20.2399 23.2133 20.1199C23.4267 20.0266 23.5733 19.7999 23.5733 19.5599C23.5733 19.3719 23.4667 19.1999 23.2533 19.0266C23.04 18.8546 22.6013 18.6546 21.948 18.3986C21.268 18.1586 20.6427 17.8386 20.0547 17.4399C19.6374 17.1411 19.291 16.7542 19.04 16.3066C18.8281 15.8847 18.7232 15.4172 18.7347 14.9452C18.7347 14.3719 18.8947 13.8252 19.1893 13.3319C19.5227 12.7986 20.0147 12.3719 20.588 12.1052C21.2133 11.7866 22 11.6399 22.9467 11.6399C23.4933 11.6399 24.0533 11.6799 24.6 11.7599C25 11.8132 25.3867 11.9199 25.7467 12.0666C25.7987 12.0799 25.8533 12.1332 25.88 12.1866C25.8933 12.2399 25.9067 12.2932 25.9067 12.3466V14.5199C25.9067 14.5732 25.88 14.6266 25.84 14.6532C25.72 14.6799 25.6533 14.6799 25.6 14.6532C25.2 14.4399 24.7733 14.2932 24.32 14.1999C23.8267 14.0932 23.3333 14.0266 22.8267 14.0266C22.56 14.0132 22.28 14.0532 22.0253 14.1199C21.8533 14.1599 21.7053 14.2532 21.612 14.3866C21.5453 14.4932 21.5053 14.6266 21.5053 14.7466C21.5053 14.8666 21.5587 14.9866 21.64 15.0932C21.76 15.2399 21.9187 15.3599 22.0933 15.4532C22.3987 15.6132 22.72 15.7599 23.0387 15.8932C23.76 16.1332 24.4533 16.4666 25.0933 16.8666C25.5333 17.1452 25.8933 17.5199 26.1453 17.9732C26.3587 18.3972 26.4653 18.8666 26.452 19.3452C26.4667 19.9732 26.28 20.5986 25.9333 21.1199Z" fill="#686D76"/>
</g>
<defs>
<clipPath id="clip0_327_51">
<rect width="32" height="32" fill="white"/>
</clipPath>
</defs>
</svg>
